<svg width="86" height="28" viewBox="0 0 86 28" fill="none" xmlns="http://www.w3.org/2000/svg">
<path id="Combined Shape" fill-rule="evenodd" clip-rule="evenodd" d="M28 14C28 21.732 21.732 28 14 28C6.26801 28 0 21.732 0 14C0 6.26801 6.26801 0 14 0C21.732 0 28 6.26801 28 14ZM12.539 7.11432L11.8739 8.45999H11L13.8305 3H14.658L17.4576 8.45999H16.5605L15.8954 7.11432H12.539ZM12.8638 6.4879H15.5629L14.2249 3.7811L12.8638 6.4879ZM14.1863 17.2841C15.1839 17.2841 15.8954 16.9438 16.2048 16.7273C16.3362 16.6345 16.4523 16.5262 16.5683 16.4102V17.1604H17.2411V14.2835H14.1863V14.9331H16.5915C16.5528 15.2038 16.5219 15.3894 16.3749 15.6369C15.965 16.3097 15.1143 16.6345 14.3564 16.6345C14.0703 16.6345 13.0262 16.5881 12.3843 15.807C12.0672 15.428 11.8894 14.8712 11.8894 14.384C11.8894 13.425 12.4462 12.7135 13.3356 12.4042C13.7841 12.2495 14.2095 12.234 14.3796 12.234C15.3077 12.234 15.8954 12.6362 16.1584 12.8759C16.2948 13.0059 16.3712 13.1195 16.4243 13.1983C16.4344 13.2133 16.4436 13.227 16.4523 13.2394L17.2102 13.0074C17.0632 12.7367 17.0091 12.6748 16.8853 12.5434C16.7616 12.4042 16.5451 12.1954 16.1506 11.9943C15.3773 11.5921 14.6348 11.5689 14.3255 11.5689C13.034 11.5689 12.2374 12.118 11.8662 12.466C11.727 12.5975 11.6187 12.729 11.5104 12.8914C11.1005 13.5101 11.0619 14.152 11.0619 14.4149C11.0619 15.2502 11.4099 15.8225 11.5955 16.0699C11.928 16.5262 12.7169 17.2841 14.1863 17.2841ZM17.156 24.956C16.2666 26 14.689 26 14.3719 26C13.2892 26 12.655 25.6984 12.2683 25.4509C12.1291 25.3581 12.0208 25.273 11.8971 25.1648C11.8198 25.0874 11.6496 24.9173 11.495 24.6698C11.3016 24.3759 11.0619 23.9042 11.0619 23.0921C11.0619 22.8292 11.0773 22.11 11.5414 21.4681C11.6187 21.3521 11.7192 21.2283 11.9358 21.035C12.1291 20.8726 12.3534 20.7179 12.5699 20.6096C13.2737 20.2539 14.1476 20.2384 14.3564 20.2384C14.6116 20.2384 15.6247 20.2616 16.4136 20.7411C16.5219 20.8107 16.7461 20.9576 16.9781 21.1974C17.218 21.4522 17.3488 21.6852 17.4201 21.812L17.4267 21.8238L16.5992 22.0017C16.5528 21.9166 16.5064 21.8393 16.4523 21.7619C16.3285 21.5918 16.1429 21.4217 15.965 21.3134C15.7098 21.151 15.1607 20.919 14.3874 20.919C14.1708 20.919 13.3278 20.9267 12.6937 21.3753C12.6318 21.4139 12.5158 21.5067 12.3843 21.6537C12.1755 21.8779 11.8816 22.311 11.8816 23.0844C11.8816 23.3087 11.9048 23.9274 12.3147 24.461C12.802 25.0952 13.6063 25.2421 13.8383 25.2808C14.0261 25.3084 14.2218 25.3163 14.3493 25.3185L14.5838 25.3186C14.9558 25.3113 15.8481 25.2435 16.4213 24.6157C16.5528 24.4765 16.6301 24.3605 16.7229 24.198L17.5427 24.3682C17.3648 24.6853 17.2643 24.8245 17.156 24.956ZM84.76 19.2C85.04 18.86 85.3 18.5 85.76 17.68L83.64 17.24C83.4 17.66 83.2 17.96 82.86 18.32C81.292 20.0373 78.8006 20.1344 77.9551 20.1397L77.6508 20.1395C77.3411 20.1372 76.7467 20.1233 76.18 20.04C75.58 19.94 73.5 19.56 72.24 17.92C71.18 16.54 71.12 14.94 71.12 14.36C71.12 12.36 71.88 11.24 72.42 10.66C72.76 10.28 73.06 10.04 73.22 9.94C74.86 8.78 77.04 8.76 77.6 8.76C79.6 8.76 81.02 9.36 81.68 9.78C82.14 10.06 82.62 10.5 82.94 10.94C83.08 11.14 83.2 11.34 83.32 11.56L85.46 11.1L85.4428 11.0694C85.2587 10.7416 84.9202 10.139 84.3 9.48C83.7 8.86 83.12 8.48 82.84 8.3C80.8 7.06 78.18 7 77.52 7C76.98 7 74.72 7.04 72.9 7.96C72.34 8.24 71.76 8.64 71.26 9.06C70.7 9.56 70.44 9.88 70.24 10.18C69.04 11.84 69 13.7 69 14.38C69 16.48 69.62 17.7 70.12 18.46C70.52 19.1 70.96 19.54 71.16 19.74C71.48 20.02 71.76 20.24 72.12 20.48C73.12 21.12 74.76 21.9 77.56 21.9L77.7112 21.8996C78.7938 21.8929 82.5779 21.7615 84.76 19.2ZM63.96 20.42C63.16 20.98 61.32 21.86 58.74 21.86C54.94 21.86 52.9 19.9 52.04 18.72C51.56 18.08 50.66 16.6 50.66 14.44C50.66 13.76 50.76 12.1 51.82 10.5C52.1 10.08 52.38 9.74 52.74 9.4C53.7 8.5 55.76 7.08 59.1 7.08C59.9 7.08 61.82 7.14 63.82 8.18C64.84 8.7 65.4 9.24 65.72 9.6C66.04 9.94 66.18 10.1 66.56 10.8L64.6 11.4C64.5776 11.368 64.5537 11.3325 64.5276 11.2937L64.5276 11.2936C64.3904 11.0897 64.1928 10.796 63.84 10.46C63.16 9.84 61.64 8.8 59.24 8.8C58.8 8.8 57.7 8.84 56.54 9.24C54.24 10.04 52.8 11.88 52.8 14.36C52.8 15.62 53.26 17.06 54.08 18.04C55.74 20.06 58.44 20.18 59.18 20.18C61.14 20.18 63.34 19.34 64.4 17.6C64.78 16.96 64.86 16.48 64.96 15.78H58.74V14.1H66.64V21.54H64.9V19.6C64.6 19.9 64.3 20.18 63.96 20.42ZM35.26 21.54L36.98 18.06H45.66L47.38 21.54H49.7L42.46 7.42H40.32L33 21.54H35.26ZM44.8 16.44H37.82L41.34 9.44L44.8 16.44Z" fill="#231F20"/>
</svg>
