<svg width="17" height="18" viewBox="0 0 17 18" fill="none" xmlns="http://www.w3.org/2000/svg">
<path id="+" d="M8.76 17.4402C9.02666 17.4402 9.16 17.3068 9.16 17.0402V10.0802C9.16 9.97351 9.21333 9.92018 9.31999 9.92018H16.48C16.7467 9.92018 16.88 9.78684 16.88 9.52018V8.96018C16.88 8.69351 16.7467 8.56018 16.48 8.56018H9.31999C9.21333 8.56018 9.16 8.50684 9.16 8.40018V1.08018C9.16 0.813509 9.02666 0.680176 8.76 0.680176H8.2C7.93333 0.680176 7.79999 0.813509 7.79999 1.08018V8.40018C7.79999 8.50684 7.74666 8.56018 7.64 8.56018H0.519995C0.253328 8.56018 0.119995 8.69351 0.119995 8.96018V9.52018C0.119995 9.78684 0.253328 9.92018 0.519995 9.92018H7.64C7.74666 9.92018 7.79999 9.97351 7.79999 10.0802V17.0402C7.79999 17.3068 7.93333 17.4402 8.2 17.4402H8.76Z" fill="black"/>
</svg>
