<svg width="14" height="16" viewBox="0 0 14 16" fill="none" xmlns="http://www.w3.org/2000/svg">
<g id="Group 3 Copy 18">
<mask id="mask0_1_456" style="mask-type:luminance" maskUnits="userSpaceOnUse" x="0" y="0" width="14" height="16">
<path id="Clip 2" fill-rule="evenodd" clip-rule="evenodd" d="M0 0H14V16H0V0Z" fill="white"/>
</mask>
<g mask="url(#mask0_1_456)">
<path id="Fill 1" fill-rule="evenodd" clip-rule="evenodd" d="M11.4607 9.90618C10.3849 9.90618 9.50929 9.05167 9.50929 8.00051C9.50929 6.94936 10.3849 6.09485 11.4607 6.09485C12.5365 6.09485 13.411 6.94936 13.411 8.00051C13.411 9.05167 12.5365 9.90618 11.4607 9.90618ZM2.54038 15.4224C1.46459 15.4224 0.59005 14.5679 0.59005 13.5178C0.59005 12.4656 1.46459 11.6121 2.54038 11.6121C3.61617 11.6121 4.49071 12.4656 4.49071 13.5178C4.49071 14.5679 3.61511 15.4224 2.54038 15.4224ZM2.54038 4.38891C1.46459 4.38891 0.59005 3.53439 0.59005 2.48324C0.59005 1.43311 1.46459 0.577569 2.54038 0.577569C3.61617 0.577569 4.49071 1.43208 4.49071 2.48324C4.49071 3.53336 3.61511 4.38891 2.54038 4.38891ZM11.4607 5.51831C10.6641 5.51831 9.96237 5.88482 9.4977 6.44489L4.82261 3.55292C4.98277 3.22759 5.08076 2.86725 5.08076 2.48221C5.08076 1.11396 3.94069 0 2.54038 0C1.14006 0 0 1.11293 0 2.48221C0 3.85149 1.14006 4.96442 2.54038 4.96442C3.33589 4.96442 4.03763 4.5979 4.5023 4.03784L9.17844 6.9298C9.01829 7.25513 8.9203 7.61547 8.9203 7.99949C8.9203 8.3835 9.01829 8.74384 9.17844 9.06917L4.5023 11.9622C4.03763 11.4021 3.33484 11.0356 2.54038 11.0356C1.14006 11.0356 0 12.1495 0 13.5178C0 14.886 1.14006 16 2.54038 16C3.94069 16 5.08076 14.886 5.08076 13.5178C5.08076 13.1327 4.98277 12.7724 4.82261 12.4471L9.4977 9.55511C9.96237 10.1152 10.6652 10.4817 11.4607 10.4817C12.8599 10.4817 14 9.36774 14 7.99949C14 6.63226 12.862 5.51831 11.4607 5.51831Z" fill="black"/>
</g>
</g>
</svg>
