<svg width="27" height="27" viewBox="0 0 27 27" fill="none" xmlns="http://www.w3.org/2000/svg">
<g id="Group 6 Copy">
<path id="Fill 1" fill-rule="evenodd" clip-rule="evenodd" d="M11.191 19.4973L11.6231 16.7637L22.5736 2.45452C22.903 2.07808 23.2142 1.87914 23.4738 1.87914C23.5859 1.87914 23.7251 1.87914 23.8649 1.96672L24.8226 2.65272C25.1072 2.88333 25.0423 3.43773 24.6725 3.94243L13.6592 18.3698L11.191 19.4973ZM10 21L14.2907 19.0131L25.4682 4.41333C25.8727 3.92159 26.0603 3.33445 25.9829 2.80229C25.9269 2.4167 25.7379 2.10226 25.4368 1.8931L24.4089 1.25746C24.1612 1.08183 23.8447 1 23.4136 1L23.396 1.001C22.8535 1.05852 22.322 1.38659 21.8984 1.92603L10.7787 16.4137L10 21Z" fill="black"/>
<g id="Group 5">
<mask id="mask0_1_476" style="mask-type:luminance" maskUnits="userSpaceOnUse" x="0" y="0" width="27" height="27">
<path id="Clip 4" fill-rule="evenodd" clip-rule="evenodd" d="M0 0.00634766H26.9936V27H0V0.00634766Z" fill="white"/>
</mask>
<g mask="url(#mask0_1_476)">
<path id="Fill 3" fill-rule="evenodd" clip-rule="evenodd" d="M26.1121 8.15191V24.0173C26.1121 25.144 25.1954 26.0606 24.0688 26.0606H2.92488C1.79825 26.0606 0.88159 25.144 0.88159 24.0173V2.93126C0.88159 1.80456 1.79825 0.887968 2.92488 0.887968H18.9636V0.00634766H2.92488C1.31212 0.00634766 -3.05176e-05 1.31843 -3.05176e-05 2.93126V24.0751C-3.05176e-05 25.6879 1.31212 27 2.92488 27H24.0688C25.6815 27 26.9937 25.6879 26.9937 24.0751V8.15191H26.1121Z" fill="black"/>
</g>
</g>
</g>
</svg>
