<svg width="31" height="31" viewBox="0 0 31 31" fill="none" xmlns="http://www.w3.org/2000/svg">
<g id="Group 6 Copy" opacity="0.46">
<g id="Group 3">
<mask id="mask0_1_525" style="mask-type:luminance" maskUnits="userSpaceOnUse" x="0" y="0" width="31" height="31">
<path id="Clip 2" fill-rule="evenodd" clip-rule="evenodd" d="M0 0.0441895H30.9559V31H0V0.0441895Z" fill="white"/>
</mask>
<g mask="url(#mask0_1_525)">
<path id="Fill 1" fill-rule="evenodd" clip-rule="evenodd" d="M27.3799 29.9326H3.57596C2.34836 29.9326 1.33435 29.0786 1.12085 27.9045L8.6463 18.1907C8.91317 17.8704 9.28679 17.657 9.71369 17.6037C10.1407 17.5503 10.5677 17.7104 10.8879 18.0306L13.7166 20.8593C14.7308 21.8734 16.3319 21.8734 17.346 20.8593L18.3066 19.8987C18.8404 19.3649 19.7477 19.3115 20.3348 19.8453L29.8884 28.0112C29.5682 29.0786 28.5541 29.9326 27.3799 29.9326ZM3.57596 1.11158H27.3799C28.7676 1.11158 29.8884 2.23243 29.8884 3.62006V26.6235L20.9752 18.9913C19.9612 18.1373 18.4667 18.1907 17.5061 19.098L16.5454 20.1122C15.9583 20.6992 14.9976 20.6992 14.4639 20.1122L11.6352 17.2834C11.1014 16.7497 10.4076 16.4828 9.66032 16.5362C8.91317 16.5896 8.27269 16.9632 7.79232 17.5503L1.06748 26.2499V3.62006C1.06748 2.23243 2.18824 1.11158 3.57596 1.11158ZM30.9559 3.62006C30.9559 1.64532 29.3547 0.0441895 27.3799 0.0441895H3.57596C1.60113 0.0441895 0 1.64532 0 3.62006V27.4241V27.691C0 27.7977 0 27.9045 0.0533739 28.0112C0.320243 29.7191 1.81462 31.0001 3.57596 31.0001H27.3799C29.1413 31.0001 30.6356 29.7191 30.9025 28.0112C30.9559 27.9045 30.9559 27.7977 30.9559 27.691V27.3707V3.62006Z" fill="black"/>
</g>
</g>
<path id="Fill 4" fill-rule="evenodd" clip-rule="evenodd" d="M20 6.14288C21.6 6.14288 22.8571 7.39996 22.8571 9C22.8571 10.5999 21.6 11.8571 20 11.8571C18.4001 11.8571 17.1429 10.5999 17.1429 9C17.1429 7.39996 18.4001 6.14288 20 6.14288ZM20 13C22.2285 13 24 11.2285 24 9C24 6.77147 22.2285 5 20 5C17.7715 5 16 6.77147 16 9C16 11.2285 17.7715 13 20 13Z" fill="black"/>
</g>
</svg>
