<svg width="19" height="16" viewBox="0 0 19 16" fill="none" xmlns="http://www.w3.org/2000/svg">
<path id="Fill 1 Copy 20" fill-rule="evenodd" clip-rule="evenodd" d="M16.8143 7.89028L9.5131 15L2.21188 7.89028C0.596039 6.31034 0.596039 3.76489 2.21188 2.18495C2.98988 1.42424 4.03719 1.01463 5.11411 1.01463C6.19164 1.01463 7.23895 1.42424 8.01695 2.18495L9.27371 3.41379C9.3934 3.53083 9.57294 3.53083 9.69263 3.41379L10.9491 2.18495C12.5652 0.605016 15.1685 0.605016 16.7841 2.18495C18.4002 3.76489 18.4002 6.31034 16.8143 7.89028ZM17.5766 1.44061C16.6408 0.521073 15.4246 0.0306513 14.083 0.0306513C12.7417 0.0306513 11.5256 0.521073 10.5898 1.44061L9.52925 2.48276L8.43752 1.40996C7.50175 0.490421 6.28525 0 4.94367 0C3.60271 0 2.38621 0.490421 1.45044 1.40996C-0.483481 3.31034 -0.483481 6.37548 1.45044 8.24521L9.27971 15.908C9.3421 15.9693 9.40448 16 9.49806 16C9.59164 16 9.65402 15.9693 9.7164 15.908L17.5457 8.24521C19.4796 6.37548 19.4796 3.31034 17.5766 1.44061Z" fill="#FF0000"/>
</svg>
