<svg width="33" height="28" viewBox="0 0 33 28" fill="none" xmlns="http://www.w3.org/2000/svg">
<g id="Group 3 Copy" opacity="0.46">
<mask id="mask0_1_514" style="mask-type:luminance" maskUnits="userSpaceOnUse" x="0" y="0" width="33" height="28">
<path id="Clip 2" fill-rule="evenodd" clip-rule="evenodd" d="M0 0H33V28H0V0Z" fill="white"/>
</mask>
<g mask="url(#mask0_1_514)">
<path id="Fill 1" fill-rule="evenodd" clip-rule="evenodd" d="M3.45245 0.929504C3.12969 0.929804 2.86697 1.19807 2.86679 1.52749V3.70613C2.86703 3.94793 3.00838 4.16441 3.22701 4.25755L21.8734 4.25839C21.9901 4.25959 22.1065 4.27483 22.2197 4.30376L23.829 4.30406C24.1518 4.30382 24.4148 4.03555 24.4152 3.70613V1.52749C24.4148 1.19807 24.1519 0.929804 23.829 0.929504H3.45245ZM20.7009 8.51696C20.766 8.51762 20.8314 8.5331 20.89 8.56167L21.8734 8.56269C22.1962 8.56227 22.4589 8.29388 22.4591 7.96452V5.78588C22.4589 5.54408 22.3175 5.32761 22.0989 5.2344L3.45245 5.23362C3.33591 5.23242 3.21942 5.21718 3.10629 5.18819L1.49684 5.18789C1.17408 5.18819 0.911124 5.4564 0.910712 5.78588V7.96452C0.911124 8.29394 1.17402 8.56233 1.49678 8.56269H4.61501C4.75066 8.5328 4.88855 8.51744 5.02514 8.51696H20.7009ZM4.73872 9.49261C4.29766 9.6214 3.98854 10.0383 3.98695 10.5066V11.7612C3.98825 12.2334 4.30071 12.6503 4.74678 12.7752L15.5381 12.7756C15.5403 12.7756 15.5423 12.776 15.5444 12.7764C15.5482 12.7771 15.5514 12.7777 15.5546 12.7779L15.5605 12.7776C16.5007 11.3806 17.7825 10.253 19.2703 9.5123L19.2667 9.49297L4.74025 9.49219L4.73872 9.49261ZM2.65564 13.7051C2.08379 13.7059 1.61809 14.1813 1.61744 14.7649V16.0198C1.61809 16.6035 2.08379 17.079 2.65564 17.0797H4.21151C4.21892 17.0783 4.22392 17.078 4.2288 17.0777C4.23492 17.0773 4.24056 17.0769 4.24668 17.0757C4.36569 17.0499 4.48758 17.036 4.60913 17.0342H13.9815L13.9835 17.025C14.1251 15.883 14.4617 14.7865 14.9836 13.7661L14.9908 13.752L5.02514 13.7506C4.90349 13.7488 4.78153 13.7349 4.66264 13.7091C4.65646 13.7078 4.65082 13.7075 4.64517 13.7071C4.63982 13.7068 4.635 13.7065 4.62977 13.7053L2.65564 13.7051ZM4.32088 18.0096C3.87723 18.1438 3.57558 18.5512 3.57035 19.0235V20.2785C3.57581 20.7669 3.90422 21.1893 4.36904 21.3056C4.44731 21.326 4.52798 21.337 4.60883 21.3383H14.3905L14.3873 21.3244C14.0635 20.3358 13.8988 19.3059 13.8976 18.2634C13.8976 18.2184 13.9007 18.1731 13.9038 18.1294C13.9063 18.0928 13.9088 18.0566 13.9097 18.02L13.9099 18.0102L4.32247 18.0092L4.32088 18.0096ZM2.65564 22.2223C2.08379 22.2231 1.61809 22.6985 1.6175 23.2821V24.5371C1.61809 25.1207 2.08379 25.5962 2.65564 25.5969H17.1758L17.1576 25.5784C16.1289 24.6573 15.32 23.5455 14.7536 22.274L14.751 22.2684L4.60901 22.2678C4.47624 22.2671 4.34329 22.2518 4.21375 22.2226L2.65564 22.2223ZM23.4471 9.44652C18.6838 9.44652 14.8086 13.4017 14.8085 18.2632C14.8085 20.6183 15.707 22.8325 17.3386 24.4977C18.9702 26.1631 21.1395 27.0802 23.447 27.0802C28.205 27.0748 32.0802 23.1196 32.0857 18.2635C32.0858 13.4018 28.2106 9.44658 23.4472 9.44652H23.4471ZM23.4435 28C21.6666 28 19.926 27.491 18.4099 26.528L2.65564 26.5265C1.58228 26.525 0.708024 25.6326 0.706731 24.5371V23.2822C0.708024 22.1867 1.58228 21.2943 2.65564 21.2928H2.93453L2.927 21.2769C2.75254 20.9746 2.66005 20.6293 2.65963 20.2785V19.0236C2.66005 18.6727 2.75254 18.3275 2.927 18.0252L2.93535 18.0106L2.65564 18.0092C1.58228 18.0078 0.708024 17.1154 0.706731 16.0198V14.7649C0.708024 13.6694 1.58228 12.777 2.65564 12.7756H3.35108L3.34355 12.7597C3.16909 12.4573 3.07665 12.1121 3.07624 11.7612V10.5066C3.07812 10.1552 3.17256 9.80991 3.34931 9.50822L3.35778 9.49369L1.49684 9.49219C0.67245 9.49123 0.000940818 8.80593 0 7.96446V5.78588C0.00105842 4.94459 0.672509 4.25935 1.49684 4.25839H2.06086L2.05675 4.24398C1.99118 4.0718 1.95731 3.8908 1.95608 3.70601V1.52749C1.9569 0.686266 2.62818 0.00102025 3.45245 0H23.829C24.6533 0.000960232 25.3248 0.686206 25.3259 1.52749V3.70613C25.3248 4.54742 24.6533 5.23266 23.829 5.23362H23.265L23.2691 5.24803C23.3348 5.42021 23.3686 5.60121 23.3698 5.78594V7.96452C23.3688 8.15249 23.334 8.33649 23.2664 8.51137L23.2613 8.52476L23.2763 8.52584C23.3031 8.52536 23.3296 8.52338 23.3561 8.5214C23.3871 8.51918 23.4168 8.51696 23.447 8.51696C25.2347 8.51696 26.9804 9.02552 28.4951 9.98767C30.6596 11.3624 32.1699 13.5151 32.7479 16.0492C33.3259 18.5833 32.9025 21.1955 31.5555 23.4045C30.6829 24.8356 29.4593 26.0148 28.0169 26.8145C26.618 27.5901 25.0367 28 23.4437 28H23.4435Z" fill="black"/>
</g>
</g>
</svg>
