<svg width="28" height="33" viewBox="0 0 28 33" fill="none" xmlns="http://www.w3.org/2000/svg">
<g id="Group 10 Copy">
<path id="Fill 1" fill-rule="evenodd" clip-rule="evenodd" d="M9.64558 4.88906C10.8882 3.64674 12.127 2.40823 13.3696 1.1659C13.5438 0.991685 13.7143 0.821212 13.8886 0.646994C14.2334 0.302303 13.6992 -0.235528 13.3545 0.11291C12.1119 1.35523 10.873 2.59381 9.63041 3.83613L9.11138 4.35504C8.76668 4.69593 9.30082 5.23376 9.64558 4.88906Z" fill="black"/>
<path id="Fill 3" fill-rule="evenodd" clip-rule="evenodd" d="M18.8887 4.35306C17.6464 3.11085 16.408 1.87245 15.1658 0.630237L14.6469 0.111373C14.3023 -0.233287 13.7645 0.300749 14.1129 0.645346C15.3551 1.88756 16.5936 3.12602 17.8358 4.36824C18.01 4.54244 18.1804 4.71283 18.3546 4.8871C18.6993 5.23551 19.2333 4.69772 18.8887 4.35306Z" fill="black"/>
<path id="Fill 5" fill-rule="evenodd" clip-rule="evenodd" d="M13.9849 19.6625V17.7269V13.1197V7.54989V2.70556C13.9849 1.92783 14.0188 1.14658 13.9849 0.368845V0.33745C13.9849 -0.112483 13.0151 -0.112483 13.0151 0.33745V2.27311V6.88031V12.4501V17.2944C13.0151 18.0722 12.9811 18.8534 13.0151 19.6312V19.6625C13.0151 20.1125 13.9849 20.1125 13.9849 19.6625Z" fill="black"/>
<g id="Group 9">
<mask id="mask0_1_483" style="mask-type:luminance" maskUnits="userSpaceOnUse" x="0" y="8" width="28" height="25">
<path id="Clip 8" fill-rule="evenodd" clip-rule="evenodd" d="M0 8.01074H27.9717V32.3903H0V8.01074Z" fill="white"/>
</mask>
<g mask="url(#mask0_1_483)">
<path id="Fill 7" fill-rule="evenodd" clip-rule="evenodd" d="M7.08882 8.01994H5.22958C4.53697 8.01994 3.80736 7.96915 3.12592 8.10704C1.94073 8.35015 0.892625 9.16293 0.381485 10.237C0.111108 10.8102 -2.28882e-05 11.4162 -2.28882e-05 12.0439V14.7217V19.4424V24.4278V27.8858V28.5026C0.00370217 29.5767 0.455551 30.6216 1.26296 31.3509C2.00368 32.0186 2.97034 32.3851 3.97772 32.3887H4.57403H7.78509H12.6554H17.8221H22.0405C22.6887 32.3887 23.3406 32.3923 23.9887 32.3887C24.9813 32.3851 25.9294 32.0331 26.6701 31.3836C27.4998 30.6543 27.9627 29.5911 27.9701 28.5062C27.9738 27.835 27.9701 27.1637 27.9701 26.4924V22.0584V16.9968V13.049V12.0511C27.9701 11.4343 27.8664 10.8429 27.6072 10.2805C27.1183 9.20642 26.0849 8.3864 24.9183 8.12151C24.2257 7.9655 23.485 8.01994 22.7776 8.01994H20.9961C20.5183 8.01994 20.5183 8.74562 20.9961 8.74562H22.8146C23.4701 8.74562 24.1776 8.68395 24.8183 8.84726C25.8665 9.11574 26.7405 9.90675 27.0738 10.9227C27.2034 11.3255 27.2331 11.7282 27.2331 12.1419V14.9793V19.6782V24.5548V27.9184V28.5062C27.2294 29.475 26.7812 30.393 26.0035 30.9954C25.4109 31.4453 24.6887 31.663 23.9516 31.663H23.259H19.9665H15.1591H10.0703H5.93331H3.98144C3.15181 31.663 2.35185 31.3655 1.74442 30.8067C1.0926 30.2007 0.737041 29.3698 0.733316 28.4917C0.729653 27.7878 0.733316 27.0839 0.733316 26.3836V21.9895V17.0004V13.0998C0.733316 12.2979 0.65925 11.4525 0.974079 10.6905C1.39631 9.68176 2.35185 8.96696 3.43702 8.78194C3.70368 8.73839 3.97405 8.74562 4.24443 8.74562H5.35183H7.08509C7.56662 8.74562 7.56662 8.01994 7.08882 8.01994Z" fill="black"/>
</g>
</g>
</g>
</svg>
